<svg width="16" height="16" viewBox="0 0 16 16" fill="none" xmlns="http://www.w3.org/2000/svg">
<path d="M8.00001 15C8.91943 15.0012 9.83003 14.8207 10.6795 14.4688C11.5289 14.117 12.3004 13.6007 12.9497 12.9497C13.6007 12.3004 14.117 11.5289 14.4688 10.6795C14.8207 9.83003 15.0012 8.91943 15 8.00001C15.0012 7.08058 14.8206 6.16999 14.4688 5.32056C14.1169 4.47112 13.6007 3.69959 12.9497 3.05031C12.3004 2.39932 11.5289 1.88306 10.6795 1.5312C9.83003 1.17934 8.91943 0.998815 8.00001 1.00001C7.08058 0.998834 6.16999 1.17936 5.32056 1.53122C4.47112 1.88308 3.69959 2.39933 3.05031 3.05031C2.39933 3.69959 1.88308 4.47112 1.53122 5.32056C1.17936 6.16999 0.998834 7.08058 1.00001 8.00001C0.998815 8.91943 1.17934 9.83003 1.5312 10.6795C1.88306 11.5289 2.39932 12.3004 3.05031 12.9497C3.69959 13.6007 4.47112 14.1169 5.32056 14.4688C6.16999 14.8206 7.08058 15.0012 8.00001 15V15Z" stroke="white" stroke-width="1.4" stroke-linejoin="round"/>
<path fill-rule="evenodd" clip-rule="evenodd" d="M8 12.55C8.23206 12.55 8.45462 12.4579 8.61872 12.2938C8.78281 12.1297 8.875 11.9071 8.875 11.675C8.875 11.443 8.78281 11.2204 8.61872 11.0563C8.45462 10.8922 8.23206 10.8 8 10.8C7.76794 10.8 7.54538 10.8922 7.38128 11.0563C7.21719 11.2204 7.125 11.443 7.125 11.675C7.125 11.9071 7.21719 12.1297 7.38128 12.2938C7.54538 12.4579 7.76794 12.55 8 12.55Z" fill="white"/>
<path d="M8 3.80005V9.40005" stroke="white" stroke-width="1.4" stroke-linecap="round" stroke-linejoin="round"/>
</svg>
