<svg width="112" height="44" viewBox="0 0 112 44" fill="none" xmlns="http://www.w3.org/2000/svg">
<path d="M5.61507 7.341H2.61826V31H11.6087V28.0032H5.61507V7.341ZM19.3915 31V7.341H16.3947V31H19.3915ZM26.1972 31H32.3485C33.9783 31 35.277 30.4953 36.2444 29.4858C37.2223 28.4659 37.7112 27.1304 37.7112 25.4796V23.0348C37.7112 22.162 37.564 21.3682 37.2696 20.6531C36.9752 19.9381 36.5651 19.3387 36.0393 18.855C36.9436 17.8561 37.3958 16.568 37.3958 14.9907V12.8614C37.3958 11.2 36.9068 9.86463 35.9289 8.85518C34.9615 7.84572 33.6629 7.341 32.0331 7.341H26.1972V31ZM29.194 17.5144V10.3378H32.0331C32.7586 10.3378 33.3317 10.5691 33.7523 11.0318C34.1834 11.4945 34.399 12.1043 34.399 12.8614V14.9907C34.399 15.7478 34.1834 16.3577 33.7523 16.8204C33.3317 17.283 32.7586 17.5144 32.0331 17.5144H29.194ZM29.194 28.0032V20.5112H32.3485C33.074 20.5112 33.6471 20.7425 34.0677 21.2052C34.4988 21.6678 34.7144 22.2777 34.7144 23.0348V25.4796C34.7144 26.2367 34.4988 26.8465 34.0677 27.3092C33.6471 27.7719 33.074 28.0032 32.3485 28.0032H29.194ZM53.4149 7.341H43.7935V31H53.4149V28.0032H46.7904V20.4323H52.5631V17.4355H46.7904V10.3378H53.4149V7.341ZM58.9563 31H61.9531V21.773H64.7921C65.5177 21.773 66.0908 21.9885 66.5114 22.4197C66.9425 22.8508 67.158 23.4239 67.158 24.1389V31H70.1548V24.1389C70.1548 22.5827 69.5345 21.4102 68.2937 20.6216C69.5345 19.6016 70.1548 18.1453 70.1548 16.2526V12.8614C70.1548 11.2 69.6659 9.86463 68.688 8.85518C67.7206 7.84572 66.422 7.341 64.7921 7.341H58.9563V31ZM61.9531 18.7762V10.3378H64.7921C65.5177 10.3378 66.0908 10.5691 66.5114 11.0318C66.9425 11.4945 67.158 12.1043 67.158 12.8614V16.2526C67.158 17.0096 66.9425 17.6195 66.5114 18.0822C66.0908 18.5449 65.5177 18.7762 64.7921 18.7762H61.9531ZM78.3342 31H81.331V10.3378H85.1953V7.341H74.4699V10.3378H78.3342V31ZM93.147 31H96.1438V19.3282L101.601 7.341H98.5254L94.6454 16.221L90.718 7.341H87.6423L93.147 19.3282V31Z" fill="white"/>
<path d="M43.1746 37.2722C43.3941 36.3904 43.6213 35.5201 43.8562 34.6614C44.0911 33.7988 44.3183 32.9266 44.5378 32.0448C44.5648 31.9293 44.5917 31.8195 44.6187 31.7156C44.6456 31.6116 44.6707 31.5076 44.6938 31.4037C44.7169 31.2997 44.7342 31.1957 44.7457 31.0918C44.7612 30.9839 44.7689 30.8723 44.7689 30.7567C44.7689 30.6682 44.7631 30.5873 44.7515 30.5141C44.74 30.441 44.7342 30.3582 44.7342 30.2658C44.7342 30.1772 44.7457 30.0829 44.7689 29.9827C44.8266 29.7478 44.9075 29.5726 45.0115 29.4571C45.1193 29.3416 45.281 29.2838 45.4966 29.2838C45.5852 29.2838 45.6699 29.2935 45.7508 29.3127C45.8355 29.3281 45.9183 29.3474 45.9992 29.3705C46.0877 29.3974 46.1782 29.4205 46.2706 29.4398C46.3669 29.459 46.4632 29.4687 46.5595 29.4687C46.6365 29.4687 46.7116 29.4648 46.7847 29.4571C46.8579 29.4494 46.9407 29.4417 47.0331 29.434C47.1294 29.4263 47.241 29.4186 47.3681 29.4109C47.499 29.4032 47.6627 29.3994 47.8591 29.3994C47.9669 29.3994 48.094 29.4032 48.2403 29.4109C48.3866 29.4186 48.5387 29.4359 48.6966 29.4629C48.8545 29.4898 49.0143 29.5303 49.176 29.5842C49.3378 29.6342 49.4879 29.7036 49.6266 29.7921C49.7691 29.8807 49.8942 29.9904 50.002 30.1214C50.1098 30.2484 50.1907 30.4025 50.2446 30.5835C50.2716 30.672 50.2889 30.7529 50.2966 30.8261C50.3082 30.8992 50.3139 30.9705 50.3139 31.0398C50.3139 31.2747 50.2542 31.5057 50.1349 31.7329C50.0001 31.9909 49.8172 32.2335 49.5861 32.4607C49.3589 32.684 49.0932 32.8958 48.789 33.0961C48.6697 33.1769 48.531 33.2617 48.3732 33.3502C48.2153 33.4349 48.0593 33.5177 47.9053 33.5986C47.7551 33.6756 47.6184 33.7468 47.4952 33.8123C47.3758 33.8778 47.293 33.9278 47.2468 33.9625C47.3816 34.028 47.5164 34.0973 47.6511 34.1704C47.7859 34.2397 47.9226 34.3245 48.0612 34.4246C48.2037 34.5247 48.3462 34.646 48.4887 34.7885C48.635 34.931 48.7852 35.1062 48.9392 35.3141C49.0971 35.5182 49.2588 35.7608 49.4244 36.0419C49.5938 36.323 49.7691 36.6542 49.95 37.0354C49.9962 37.1278 50.0193 37.226 50.0193 37.33C50.0193 37.4108 50.002 37.4917 49.9674 37.5726C49.9366 37.6534 49.8923 37.7266 49.8345 37.7921C49.7806 37.8575 49.7151 37.9114 49.6381 37.9538C49.5611 37.9923 49.4783 38.0116 49.3898 38.0116C49.255 38.0116 49.1433 37.9615 49.0547 37.8614C48.9662 37.7613 48.8815 37.6303 48.8006 37.4686C48.7197 37.3069 48.635 37.124 48.5464 36.9199C48.4617 36.7158 48.3558 36.5098 48.2288 36.3018C48.0901 36.0785 47.9361 35.8667 47.7667 35.6664C47.6011 35.4662 47.4239 35.2929 47.2353 35.1466C47.0466 35.0003 46.8521 34.8847 46.6519 34.8C46.4516 34.7115 46.2514 34.6672 46.0512 34.6672H45.9645C45.8451 34.6672 45.7373 34.6787 45.641 34.7018C45.5486 34.7211 45.4581 34.7384 45.3696 34.7538C45.2502 34.7115 45.1636 34.6421 45.1096 34.5459C45.0557 34.4496 45.0288 34.3418 45.0288 34.2224V34.1416L44.5667 35.961C44.5513 36.0188 44.5301 36.0977 44.5032 36.1978C44.4762 36.298 44.4454 36.4077 44.4107 36.5271C44.3761 36.6465 44.3395 36.7716 44.301 36.9025C44.2663 37.0335 44.2317 37.1567 44.197 37.2722C44.1662 37.3877 44.1373 37.4917 44.1104 37.5841C44.0873 37.6765 44.0699 37.7459 44.0584 37.7921C44.0045 37.8883 43.9352 37.9634 43.8505 38.0173C43.7696 38.0751 43.681 38.104 43.5847 38.104C43.4153 38.104 43.2979 38.0539 43.2324 37.9538C43.1669 37.8498 43.1342 37.7304 43.1342 37.5957C43.1342 37.5418 43.1381 37.4879 43.1458 37.4339C43.1535 37.3762 43.1631 37.3223 43.1746 37.2722ZM46.0107 30.7567C45.9876 30.8338 45.953 30.9454 45.9067 31.0918C45.8644 31.2381 45.8163 31.4037 45.7623 31.5885C45.7084 31.7733 45.6507 31.9717 45.5891 32.1834C45.5275 32.3952 45.4658 32.609 45.4042 32.8246C45.3426 33.0364 45.2829 33.2424 45.2252 33.4426C45.1674 33.6429 45.1154 33.8219 45.0692 33.9798C45.1462 33.8797 45.2617 33.7911 45.4158 33.7141C45.5698 33.6333 45.7431 33.5582 45.9356 33.4888C46.0858 33.4349 46.2706 33.3598 46.4901 33.2636C46.7096 33.1635 46.9388 33.0499 47.1775 32.9228C47.4201 32.7957 47.6608 32.659 47.8995 32.5127C48.1421 32.3625 48.3578 32.2104 48.5464 32.0564C48.739 31.8985 48.8949 31.7425 49.0143 31.5885C49.1337 31.4306 49.1934 31.2785 49.1934 31.1322C49.1934 30.9897 49.1433 30.878 49.0432 30.7972C48.9431 30.7125 48.8179 30.6489 48.6677 30.6066C48.5176 30.5642 48.352 30.5372 48.171 30.5257C47.9939 30.5103 47.8283 30.5026 47.6742 30.5026C47.397 30.5026 47.1197 30.5199 46.8425 30.5546C46.5652 30.5892 46.288 30.6566 46.0107 30.7567ZM51.371 35.06C51.4403 34.7711 51.5404 34.4766 51.6713 34.1762C51.8022 33.872 51.9563 33.5678 52.1334 33.2636C52.3105 32.9594 52.5069 32.6609 52.7226 32.3683C52.9421 32.0718 53.1731 31.7868 53.4157 31.5134C53.6622 31.2362 53.9144 30.9762 54.1724 30.7336C54.4342 30.4872 54.6961 30.2619 54.9579 30.0578C55.0812 29.9731 55.1948 29.9173 55.2987 29.8903C55.4027 29.8634 55.5124 29.8499 55.628 29.8499C55.7512 29.8499 55.8609 29.8691 55.9572 29.9077C56.0535 29.9423 56.1497 30.0078 56.246 30.104C56.2768 30.1387 56.3095 30.1695 56.3442 30.1965C56.3789 30.2234 56.4116 30.2369 56.4424 30.2369C56.4501 30.2369 56.4597 30.2292 56.4713 30.2138C56.4828 30.1945 56.4944 30.1734 56.5059 30.1502C56.5213 30.1271 56.5387 30.104 56.5579 30.0809C56.5772 30.054 56.6003 30.0347 56.6272 30.0232C56.6927 29.9924 56.7697 29.9731 56.8583 29.9654C56.9507 29.9539 57.0431 29.9481 57.1355 29.9481C57.3088 29.9481 57.4763 29.9808 57.6381 30.0463C57.7998 30.1079 57.9423 30.1965 58.0655 30.312C58.3581 30.5854 58.5796 30.9127 58.7297 31.2939C58.8838 31.6751 58.9608 32.0853 58.9608 32.5242C58.9608 32.917 58.903 33.3406 58.7875 33.795C58.6874 34.1955 58.543 34.5844 58.3543 34.9618C58.1695 35.3391 57.95 35.6934 57.6958 36.0246C57.4455 36.3557 57.1644 36.658 56.8525 36.9314C56.5444 37.2048 56.2152 37.4397 55.8648 37.6361C55.5144 37.8325 55.1485 37.9846 54.7673 38.0924C54.3861 38.2041 53.9991 38.2599 53.6063 38.2599C53.2405 38.2599 52.9113 38.2041 52.6186 38.0924C52.3298 37.9807 52.0834 37.8229 51.8793 37.6188C51.679 37.4147 51.525 37.1721 51.4172 36.891C51.3132 36.6099 51.2612 36.298 51.2612 35.9553C51.2612 35.8089 51.2689 35.6626 51.2843 35.5163C51.3036 35.3661 51.3325 35.214 51.371 35.06ZM52.3471 35.447C52.3048 35.6395 52.2836 35.8128 52.2836 35.9668C52.2836 36.1824 52.3202 36.3731 52.3933 36.5386C52.4704 36.7004 52.5762 36.8371 52.711 36.9487C52.8496 37.0566 53.0133 37.1394 53.202 37.1971C53.3945 37.251 53.6044 37.278 53.8316 37.278C54.1011 37.278 54.3745 37.2356 54.6518 37.1509C54.9329 37.0662 55.2063 36.943 55.472 36.7812C55.7377 36.6195 55.9938 36.425 56.2402 36.1978C56.4867 35.9707 56.7139 35.7127 56.9218 35.4238C57.1336 35.135 57.3204 34.8212 57.4821 34.4823C57.6477 34.1435 57.7805 33.7834 57.8807 33.4022C57.9192 33.2636 57.9461 33.1192 57.9615 32.969C57.9808 32.8188 57.9904 32.6744 57.9904 32.5358C57.9904 32.3124 57.9654 32.0987 57.9153 31.8946C57.8652 31.6905 57.7825 31.5096 57.6669 31.3517C57.5514 31.1938 57.3993 31.0687 57.2106 30.9762C57.0219 30.88 56.7909 30.8318 56.5175 30.8318C56.479 30.8318 56.4482 30.8492 56.4251 30.8838C56.4058 30.9146 56.3846 30.9551 56.3615 31.0051C56.3423 31.0475 56.3192 31.0918 56.2922 31.138C56.2691 31.1842 56.2364 31.2265 56.194 31.265C56.1555 31.2997 56.1055 31.3286 56.0438 31.3517C55.9861 31.3748 55.9129 31.3863 55.8244 31.3863C55.7589 31.3863 55.7011 31.3729 55.6511 31.3459C55.601 31.3151 55.5509 31.2747 55.5009 31.2246C55.4778 31.2015 55.4585 31.1842 55.4431 31.1726C55.4277 31.1572 55.4104 31.1495 55.3911 31.1495C55.3565 31.1495 55.3103 31.1649 55.2525 31.1957C55.1986 31.2265 55.1408 31.2631 55.0792 31.3055C55.0215 31.3478 54.9637 31.3921 54.9059 31.4383C54.852 31.4845 54.8097 31.525 54.7789 31.5596C54.517 31.8292 54.2552 32.1238 53.9933 32.4434C53.7353 32.7591 53.4966 33.0864 53.2771 33.4253C53.0576 33.7642 52.8651 34.1069 52.6995 34.4535C52.5377 34.7962 52.4203 35.1273 52.3471 35.447ZM60.3471 35.0195C60.5203 34.4881 60.6859 33.9779 60.8438 33.4888C61.0017 32.9998 61.1403 32.5473 61.2597 32.1315C61.3829 31.7156 61.4792 31.3478 61.5485 31.0282C61.6217 30.7086 61.6621 30.4545 61.6698 30.2658C61.716 30.0848 61.7969 29.9404 61.9124 29.8326C62.0318 29.7247 62.1685 29.6708 62.3225 29.6708C62.4149 29.6708 62.4939 29.692 62.5593 29.7344C62.6248 29.7767 62.6768 29.8326 62.7153 29.9019C62.7576 29.9712 62.7884 30.0501 62.8077 30.1387C62.8269 30.2234 62.8366 30.3101 62.8366 30.3986C62.8366 30.4641 62.8327 30.5238 62.825 30.5777C62.8173 30.6316 62.8077 30.6836 62.7961 30.7336C62.7076 31.0879 62.6017 31.4537 62.4784 31.8311C62.3552 32.2085 62.2281 32.5916 62.0972 32.9805C61.9701 33.3656 61.8431 33.7526 61.716 34.1416C61.5889 34.5305 61.4753 34.9117 61.3752 35.2852L61.2712 35.678C61.2173 35.8782 61.1711 36.0688 61.1326 36.2498C61.0941 36.4308 61.0748 36.5771 61.0748 36.6888C61.0748 36.7504 61.0864 36.8005 61.1095 36.839C61.1326 36.8737 61.1769 36.891 61.2424 36.891C61.4002 36.891 61.5851 36.866 61.7969 36.8159C62.0087 36.762 62.2281 36.6984 62.4553 36.6253C62.6825 36.5483 62.9078 36.4655 63.1311 36.3769C63.3583 36.2845 63.5663 36.1978 63.755 36.117C63.8551 36.0746 63.9398 36.038 64.0091 36.0072C64.0823 35.9764 64.1709 35.9398 64.2748 35.8975C64.3826 35.8513 64.5251 35.7916 64.7023 35.7184C64.8794 35.6453 65.1239 35.5432 65.4358 35.4123C65.4897 35.393 65.5359 35.3776 65.5744 35.3661C65.6168 35.3507 65.6553 35.343 65.69 35.343C65.7516 35.343 65.8036 35.3545 65.8459 35.3776C65.8921 35.4007 65.9268 35.4316 65.9499 35.4701C65.9769 35.5086 65.9961 35.5528 66.0077 35.6029C66.0192 35.653 66.025 35.703 66.025 35.7531C66.025 35.8378 66.0173 35.9129 66.0019 35.9784C65.9903 36.04 65.9769 36.092 65.9614 36.1343C65.9152 36.2075 65.8556 36.2749 65.7824 36.3365C65.7092 36.3942 65.6322 36.4462 65.5513 36.4924C65.4705 36.5348 65.3915 36.5714 65.3145 36.6022C65.2375 36.633 65.174 36.6561 65.1239 36.6715C65.0623 36.6946 64.9795 36.7254 64.8755 36.7639C64.7754 36.8024 64.6657 36.8448 64.5463 36.891C64.4269 36.9372 64.3037 36.9853 64.1766 37.0354C64.0496 37.0816 63.9302 37.1259 63.8185 37.1682C63.7068 37.2106 63.6067 37.2491 63.5181 37.2838C63.4334 37.3146 63.3737 37.3357 63.3391 37.3473C63.1735 37.4089 62.9887 37.4782 62.7846 37.5552C62.5843 37.6323 62.3841 37.7054 62.1839 37.7747C61.9836 37.844 61.793 37.9037 61.612 37.9538C61.4349 38 61.2866 38.0231 61.1673 38.0231C61.0209 38.0231 60.9054 38.0116 60.8207 37.9884C60.7398 37.9653 60.6667 37.9345 60.6012 37.896C60.5357 37.8537 60.4684 37.8036 60.399 37.7459C60.3336 37.6881 60.245 37.6246 60.1333 37.5552C60.0332 37.4936 59.962 37.4089 59.9196 37.3011C59.8773 37.1933 59.8561 37.0777 59.8561 36.9545C59.8561 36.8929 59.8599 36.8217 59.8676 36.7408C59.8792 36.6599 59.8927 36.5752 59.9081 36.4867C59.9235 36.3981 59.9408 36.3114 59.9601 36.2267C59.9793 36.142 60.0005 36.0669 60.0236 36.0015L60.3471 35.0195ZM66.8336 37.5726C66.8336 37.4378 66.8529 37.2953 66.8914 37.1451C67.0223 36.6214 67.1744 36.1093 67.3477 35.6087C67.5249 35.1042 67.6847 34.6036 67.8271 34.1069C67.9696 33.6101 68.0871 33.1923 68.1795 32.8535C68.2757 32.5108 68.3605 32.2181 68.4336 31.9755C68.5068 31.7291 68.5742 31.5173 68.6358 31.3401C68.6974 31.163 68.7648 30.9878 68.838 30.8145C68.8842 30.7105 68.9342 30.6027 68.9881 30.491C69.0459 30.3794 69.1075 30.2773 69.173 30.1849C69.2384 30.0886 69.3058 30.0116 69.3751 29.9539C69.4483 29.8922 69.5234 29.8614 69.6004 29.8614C69.7583 29.8614 69.8777 29.8884 69.9585 29.9423C70.0432 29.9924 70.0952 30.0386 70.1145 30.0809L70.1665 30.3178C70.2242 30.3139 70.2993 30.3043 70.3917 30.2889C70.4842 30.2696 70.5766 30.2504 70.669 30.2311C70.7653 30.2119 70.8538 30.1926 70.9347 30.1734C71.0156 30.1541 71.0772 30.1368 71.1195 30.1214C71.3737 30.0521 71.6086 29.9924 71.8242 29.9423C72.0399 29.8922 72.2439 29.8518 72.4365 29.821C72.6329 29.7864 72.8196 29.7613 72.9968 29.7459C73.1739 29.7305 73.353 29.7228 73.5339 29.7228C73.7111 29.7228 73.8555 29.7324 73.9672 29.7517C74.0788 29.771 74.1674 29.7979 74.2329 29.8326C74.2983 29.8634 74.3426 29.9019 74.3657 29.9481C74.3927 29.9904 74.4061 30.0367 74.4061 30.0867C74.4061 30.1329 74.3927 30.183 74.3657 30.2369C74.3426 30.287 74.3022 30.3351 74.2444 30.3813C74.1866 30.4275 74.1116 30.4679 74.0191 30.5026C73.9267 30.5372 73.8112 30.5604 73.6726 30.5719C73.6379 30.5796 73.5571 30.595 73.43 30.6181C73.3068 30.6374 73.172 30.6605 73.0256 30.6874C72.8793 30.7105 72.7407 30.7336 72.6098 30.7567C72.4788 30.7798 72.3883 30.7972 72.3383 30.8087H72.3441C72.321 30.8126 72.2651 30.828 72.1766 30.8549C72.0918 30.878 71.9879 30.9069 71.8646 30.9416C71.7414 30.9724 71.6066 31.009 71.4603 31.0513C71.3178 31.0937 71.1754 31.136 71.0329 31.1784C70.8943 31.2169 70.7653 31.2554 70.6459 31.2939C70.5265 31.3286 70.4302 31.3575 70.3571 31.3806C70.1222 31.473 69.9373 31.5962 69.8026 31.7502C69.6716 31.9004 69.5677 32.0698 69.4907 32.2585C69.4753 32.2932 69.4522 32.3529 69.4213 32.4376C69.3905 32.5185 69.3559 32.6128 69.3174 32.7206C69.2827 32.8246 69.2442 32.9363 69.2019 33.0556C69.1595 33.175 69.1191 33.2886 69.0806 33.3964C69.042 33.5043 69.0074 33.6024 68.9766 33.691C68.9496 33.7796 68.9304 33.845 68.9188 33.8874C68.9073 33.9259 68.8996 33.9606 68.8957 33.9914C68.8919 34.0222 68.8899 34.0453 68.8899 34.0607C68.8899 34.0838 68.8957 34.0953 68.9073 34.0953C68.965 34.0953 69.0844 34.0703 69.2654 34.0203C69.4502 33.9663 69.6639 33.9009 69.9065 33.8239C70.153 33.7468 70.4148 33.6641 70.6921 33.5755C70.9732 33.4869 71.2408 33.4041 71.495 33.3271C71.753 33.2501 71.9821 33.1866 72.1823 33.1365C72.3826 33.0826 72.527 33.0556 72.6155 33.0556C72.7503 33.0556 72.8408 33.0787 72.887 33.125C72.9332 33.1673 72.9563 33.2154 72.9563 33.2694C72.9563 33.408 72.9063 33.5293 72.8062 33.6333C72.7099 33.7372 72.5886 33.8277 72.4423 33.9047C72.396 33.9278 72.3094 33.9625 72.1823 34.0087C72.0591 34.0511 71.9243 34.0953 71.778 34.1416C71.6355 34.1878 71.4988 34.232 71.3679 34.2744C71.237 34.3168 71.1426 34.3476 71.0849 34.3668C70.7075 34.5131 70.3994 34.6344 70.1607 34.7307C69.9258 34.8231 69.7352 34.9001 69.5889 34.9618C69.4425 35.0195 69.3289 35.0638 69.2481 35.0946C69.171 35.1254 69.0979 35.1524 69.0286 35.1755C68.9631 35.1947 68.8899 35.214 68.8091 35.2332C68.7282 35.2525 68.6165 35.2794 68.4741 35.3141C68.4394 35.395 68.399 35.5182 68.3528 35.6838C68.3066 35.8455 68.2623 36.0149 68.2199 36.1921C68.1776 36.3654 68.141 36.5271 68.1102 36.6773C68.0832 36.8274 68.0697 36.9314 68.0697 36.9892C68.0697 37.0585 68.0794 37.1105 68.0986 37.1451C68.1179 37.1759 68.141 37.1971 68.1679 37.2087C68.1949 37.2202 68.2218 37.226 68.2488 37.226C68.2757 37.226 68.2969 37.226 68.3123 37.226C68.4972 37.226 68.7186 37.199 68.9766 37.1451C69.2384 37.0912 69.4964 37.02 69.7506 36.9314C69.9932 36.8467 70.205 36.7543 70.386 36.6542C70.5669 36.554 70.7364 36.4616 70.8943 36.3769C71.056 36.2883 71.2119 36.2152 71.3621 36.1574C71.5162 36.0958 71.6837 36.0631 71.8646 36.0592C71.9032 36.0592 71.9474 36.0631 71.9975 36.0708C72.0514 36.0785 72.1015 36.0939 72.1477 36.117C72.1939 36.1362 72.2305 36.1632 72.2574 36.1978C72.2882 36.2325 72.2998 36.2768 72.2921 36.3307C72.2767 36.4424 72.2208 36.5521 72.1246 36.6599C72.0283 36.7678 71.907 36.8717 71.7607 36.9719C71.6143 37.072 71.4507 37.1682 71.2697 37.2607C71.0887 37.3531 70.9039 37.4416 70.7152 37.5264C70.5265 37.6072 70.3417 37.6823 70.1607 37.7516C69.9797 37.8171 69.818 37.8749 69.6755 37.9249C69.3212 38.0481 68.9766 38.1386 68.6416 38.1964C68.3066 38.2541 68.0062 38.283 67.7405 38.283C67.4478 38.283 67.2226 38.2272 67.0647 38.1155C66.9107 38.0077 66.8336 37.8267 66.8336 37.5726ZM79.6335 37.7285C79.6489 37.6592 79.6701 37.5937 79.6971 37.5321C79.7279 37.4705 79.7606 37.4012 79.7953 37.3242C79.8299 37.2472 79.8665 37.1567 79.905 37.0527C79.9435 36.9449 79.982 36.812 80.0205 36.6542L80.2458 35.73C80.2997 35.5066 80.3555 35.2794 80.4133 35.0484C80.4711 34.8135 80.5385 34.5497 80.6155 34.2571C80.6771 34.0222 80.7502 33.7777 80.835 33.5235C80.9235 33.2655 81.014 32.9998 81.1064 32.7264C81.2027 32.453 81.299 32.1719 81.3952 31.8831C81.4915 31.5943 81.5782 31.2958 81.6552 30.9878C81.659 30.9762 81.661 30.9608 81.661 30.9416C81.661 30.9108 81.6513 30.8915 81.6321 30.8838C81.6128 30.8761 81.5878 30.8723 81.557 30.8723C81.4607 30.8723 81.3798 30.8588 81.3144 30.8318C81.2528 30.801 81.2027 30.7625 81.1642 30.7163C81.1295 30.6701 81.1045 30.6181 81.0891 30.5604C81.0737 30.4987 81.066 30.4352 81.066 30.3697C81.066 30.2003 81.0853 30.0655 81.1238 29.9654C81.1661 29.8614 81.2181 29.7825 81.2797 29.7286C81.3452 29.6708 81.4145 29.6304 81.4877 29.6073C81.5647 29.5803 81.6378 29.5592 81.7072 29.5438C81.7803 29.5284 81.8439 29.513 81.8978 29.4975C81.9517 29.4783 81.9902 29.4456 82.0133 29.3994C82.0518 29.3185 82.0865 29.2338 82.1173 29.1452C82.1519 29.0528 82.1943 28.9681 82.2443 28.8911C82.2944 28.814 82.356 28.7505 82.4292 28.7004C82.5023 28.6504 82.5986 28.6254 82.718 28.6254C82.8027 28.6254 82.8778 28.6485 82.9432 28.6947C83.0087 28.7409 83.0645 28.7986 83.1108 28.868C83.1608 28.9373 83.2032 29.0124 83.2378 29.0932C83.2725 29.1702 83.3033 29.2415 83.3302 29.3069C83.7269 29.3185 84.0696 29.3416 84.3584 29.3762C84.6511 29.4109 84.8705 29.4417 85.0169 29.4687C85.3057 29.5226 85.5945 29.6034 85.8833 29.7113C86.176 29.8191 86.4378 29.9596 86.6688 30.1329C86.9037 30.3024 87.0944 30.5045 87.2407 30.7394C87.3909 30.9705 87.466 31.2362 87.466 31.5365C87.466 31.6905 87.4486 31.8504 87.414 32.0159L87.3735 32.2181C87.3427 32.3798 87.2773 32.53 87.1771 32.6686C87.0809 32.8073 86.9711 32.9324 86.8479 33.0441C86.5052 33.3598 86.1297 33.6255 85.7216 33.8412C85.3134 34.053 84.8879 34.232 84.445 34.3784C84.0022 34.5247 83.5497 34.6479 83.0877 34.748C82.6256 34.8482 82.1692 34.9425 81.7187 35.0311L81.557 35.0542C81.4684 35.0657 81.4164 35.0985 81.401 35.1524C81.324 35.4181 81.2624 35.651 81.2162 35.8513C81.1738 36.0515 81.1334 36.2441 81.0949 36.4289C81.0564 36.6099 81.0179 36.7928 80.9794 36.9776C80.9409 37.1586 80.8927 37.3608 80.835 37.5841C80.8157 37.6573 80.7811 37.7439 80.731 37.844C80.6809 37.9442 80.6212 38.0385 80.5519 38.1271C80.4826 38.2156 80.4018 38.2907 80.3093 38.3523C80.2208 38.4178 80.1264 38.4505 80.0263 38.4505C79.957 38.4505 79.8973 38.4313 79.8472 38.3928C79.7972 38.3543 79.7548 38.3042 79.7202 38.2426C79.6894 38.1848 79.6643 38.1213 79.6451 38.052C79.6297 37.9827 79.622 37.9172 79.622 37.8556C79.622 37.8325 79.622 37.8113 79.622 37.7921C79.622 37.769 79.6258 37.7478 79.6335 37.7285ZM81.9267 33.46C81.919 33.4869 81.9074 33.5216 81.892 33.5639C81.8804 33.6024 81.8689 33.6448 81.8573 33.691C81.8458 33.7334 81.8362 33.7738 81.8285 33.8123C81.8208 33.847 81.8169 33.872 81.8169 33.8874C81.8169 33.9067 81.8188 33.924 81.8227 33.9394C81.8304 33.9509 81.8439 33.9567 81.8631 33.9567C81.8747 33.9567 81.9112 33.9529 81.9729 33.9452C82.0345 33.9336 82.1076 33.9201 82.1924 33.9047C82.2809 33.8893 82.3753 33.872 82.4754 33.8527C82.5755 33.8335 82.6718 33.8142 82.7642 33.795C83.0145 33.7411 83.2821 33.6737 83.5671 33.5928C83.852 33.5081 84.1351 33.4138 84.4162 33.3098C84.7011 33.2058 84.9726 33.0941 85.2306 32.9748C85.4886 32.8554 85.7177 32.7283 85.918 32.5935C86.1297 32.4511 86.2992 32.3086 86.4263 32.1661C86.5533 32.0236 86.6169 31.8715 86.6169 31.7098C86.6169 31.6135 86.6034 31.5288 86.5764 31.4557C86.5533 31.3786 86.5264 31.3093 86.4956 31.2477C86.38 31.059 86.2356 30.9108 86.0624 30.803C85.8891 30.6951 85.7004 30.6143 85.4963 30.5604C85.2922 30.5064 85.0785 30.4718 84.8551 30.4564C84.6318 30.441 84.4123 30.4333 84.1967 30.4333C84.1389 30.4333 84.0503 30.4371 83.931 30.4448C83.8154 30.4525 83.6922 30.4622 83.5613 30.4737C83.4342 30.4853 83.3148 30.5007 83.2032 30.5199C83.0954 30.5353 83.0222 30.5546 82.9837 30.5777C82.9644 30.5892 82.9471 30.6085 82.9317 30.6354C82.9201 30.6624 82.9105 30.6855 82.9028 30.7048C82.872 30.7818 82.8297 30.8896 82.7757 31.0282C82.7218 31.163 82.6641 31.3151 82.6025 31.4845C82.5408 31.654 82.4754 31.833 82.4061 32.0217C82.3406 32.2104 82.2771 32.3952 82.2155 32.5762C82.1538 32.7534 82.0961 32.9209 82.0422 33.0787C81.9921 33.2328 81.9536 33.3598 81.9267 33.46ZM88.1649 35.0195C88.3381 34.4881 88.5037 33.9779 88.6616 33.4888C88.8195 32.9998 88.9581 32.5473 89.0775 32.1315C89.2007 31.7156 89.297 31.3478 89.3663 31.0282C89.4395 30.7086 89.4799 30.4545 89.4876 30.2658C89.5338 30.0848 89.6147 29.9404 89.7302 29.8326C89.8496 29.7247 89.9863 29.6708 90.1403 29.6708C90.2327 29.6708 90.3117 29.692 90.3771 29.7344C90.4426 29.7767 90.4946 29.8326 90.5331 29.9019C90.5754 29.9712 90.6062 30.0501 90.6255 30.1387C90.6447 30.2234 90.6544 30.3101 90.6544 30.3986C90.6544 30.4641 90.6505 30.5238 90.6428 30.5777C90.6351 30.6316 90.6255 30.6836 90.6139 30.7336C90.5254 31.0879 90.4195 31.4537 90.2963 31.8311C90.173 32.2085 90.046 32.5916 89.915 32.9805C89.788 33.3656 89.6609 33.7526 89.5338 34.1416C89.4067 34.5305 89.2931 34.9117 89.193 35.2852L89.089 35.678C89.0351 35.8782 88.9889 36.0688 88.9504 36.2498C88.9119 36.4308 88.8927 36.5771 88.8927 36.6888C88.8927 36.7504 88.9042 36.8005 88.9273 36.839C88.9504 36.8737 88.9947 36.891 89.0602 36.891C89.218 36.891 89.4029 36.866 89.6147 36.8159C89.8265 36.762 90.046 36.6984 90.2731 36.6253C90.5003 36.5483 90.7256 36.4655 90.949 36.3769C91.1761 36.2845 91.3841 36.1978 91.5728 36.117C91.6729 36.0746 91.7576 36.038 91.8269 36.0072C91.9001 35.9764 91.9887 35.9398 92.0926 35.8975C92.2004 35.8513 92.3429 35.7916 92.5201 35.7184C92.6972 35.6453 92.9417 35.5432 93.2536 35.4123C93.3075 35.393 93.3537 35.3776 93.3923 35.3661C93.4346 35.3507 93.4731 35.343 93.5078 35.343C93.5694 35.343 93.6214 35.3545 93.6637 35.3776C93.7099 35.4007 93.7446 35.4316 93.7677 35.4701C93.7947 35.5086 93.8139 35.5528 93.8255 35.6029C93.837 35.653 93.8428 35.703 93.8428 35.7531C93.8428 35.8378 93.8351 35.9129 93.8197 35.9784C93.8081 36.04 93.7947 36.092 93.7793 36.1343C93.733 36.2075 93.6734 36.2749 93.6002 36.3365C93.527 36.3942 93.45 36.4462 93.3692 36.4924C93.2883 36.5348 93.2093 36.5714 93.1323 36.6022C93.0553 36.633 92.9918 36.6561 92.9417 36.6715C92.8801 36.6946 92.7973 36.7254 92.6933 36.7639C92.5932 36.8024 92.4835 36.8448 92.3641 36.891C92.2447 36.9372 92.1215 36.9853 91.9944 37.0354C91.8674 37.0816 91.748 37.1259 91.6363 37.1682C91.5246 37.2106 91.4245 37.2491 91.336 37.2838C91.2512 37.3146 91.1916 37.3357 91.1569 37.3473C90.9913 37.4089 90.8065 37.4782 90.6024 37.5552C90.4021 37.6323 90.2019 37.7054 90.0017 37.7747C89.8014 37.844 89.6108 37.9037 89.4298 37.9538C89.2527 38 89.1044 38.0231 88.9851 38.0231C88.8387 38.0231 88.7232 38.0116 88.6385 37.9884C88.5576 37.9653 88.4845 37.9345 88.419 37.896C88.3536 37.8537 88.2862 37.8036 88.2168 37.7459C88.1514 37.6881 88.0628 37.6246 87.9511 37.5552C87.851 37.4936 87.7798 37.4089 87.7374 37.3011C87.6951 37.1933 87.6739 37.0777 87.6739 36.9545C87.6739 36.8929 87.6777 36.8217 87.6854 36.7408C87.697 36.6599 87.7105 36.5752 87.7259 36.4867C87.7413 36.3981 87.7586 36.3114 87.7779 36.2267C87.7971 36.142 87.8183 36.0669 87.8414 36.0015L88.1649 35.0195ZM99.7287 38.0635C99.6478 38.0635 99.5766 38.0481 99.5149 38.0173C99.4533 37.9865 99.4013 37.9461 99.359 37.896C99.3205 37.846 99.2897 37.7882 99.2666 37.7227C99.2473 37.6573 99.2377 37.5918 99.2377 37.5264C99.2377 37.4686 99.2531 37.3897 99.2839 37.2895C99.3147 37.1856 99.3532 37.07 99.3994 36.943C99.4495 36.8159 99.5034 36.683 99.5612 36.5444C99.6189 36.4058 99.6748 36.2729 99.7287 36.1459C99.7826 36.0188 99.8288 35.9013 99.8673 35.7935C99.9058 35.6857 99.9328 35.601 99.9482 35.5394C99.9636 35.4701 99.9828 35.3873 100.006 35.291C100.029 35.1947 100.054 35.0908 100.081 34.9791C100.112 34.8636 100.141 34.7442 100.168 34.621C100.198 34.4939 100.229 34.3668 100.26 34.2397C100.206 34.2513 100.139 34.2628 100.058 34.2744C99.9809 34.2821 99.8981 34.2898 99.8095 34.2975C99.6825 34.3091 99.5573 34.3264 99.4341 34.3495C99.3109 34.3726 99.1838 34.3996 99.0529 34.4304C98.9258 34.4573 98.7929 34.4881 98.6543 34.5228C98.5157 34.5536 98.3674 34.5863 98.2095 34.621C97.9785 34.671 97.7475 34.7269 97.5164 34.7885C97.2854 34.8501 97.0447 34.8809 96.7944 34.8809C96.7174 34.8809 96.6461 34.8616 96.5807 34.8231C96.5152 34.7808 96.442 34.75 96.3612 34.7307C96.2842 34.8539 96.211 34.9868 96.1417 35.1293C96.0724 35.2679 96.0088 35.4123 95.9511 35.5625C95.8933 35.7088 95.8413 35.8551 95.7951 36.0015C95.7489 36.1439 95.7085 36.2787 95.6738 36.4058C95.6546 36.4751 95.6372 36.5656 95.6218 36.6773C95.6103 36.7851 95.5987 36.8968 95.5872 37.0123C95.5756 37.124 95.5641 37.2318 95.5525 37.3357C95.541 37.4397 95.5294 37.5225 95.5179 37.5841C95.5063 37.6419 95.4832 37.6996 95.4486 37.7574C95.4139 37.8113 95.3715 37.8614 95.3215 37.9076C95.2714 37.9538 95.2156 37.9904 95.154 38.0173C95.0924 38.0481 95.0307 38.0635 94.9691 38.0635C94.8613 38.0635 94.7727 38.0327 94.7034 37.9711C94.638 37.9057 94.5841 37.8267 94.5417 37.7343C94.5032 37.638 94.4762 37.5341 94.4608 37.4224C94.4454 37.3107 94.4377 37.2087 94.4377 37.1163C94.4377 36.8814 94.4666 36.6388 94.5244 36.3885C94.5821 36.1343 94.6592 35.8782 94.7554 35.6202C94.8555 35.3584 94.9711 35.0965 95.102 34.8347C95.2368 34.569 95.3812 34.3052 95.5352 34.0434C95.6623 33.8085 95.8202 33.537 96.0088 33.2289C96.1975 32.9209 96.4074 32.6051 96.6384 32.2816C96.8733 31.9543 97.1256 31.6347 97.3951 31.3228C97.6685 31.0109 97.9515 30.7336 98.2442 30.491C98.5369 30.2446 98.8372 30.0463 99.1453 29.8961C99.4533 29.7459 99.7595 29.6708 100.064 29.6708C100.383 29.6708 100.649 29.7286 100.861 29.8441C101.076 29.9596 101.248 30.1156 101.375 30.312C101.502 30.5084 101.59 30.7375 101.641 30.9993C101.694 31.2612 101.721 31.5384 101.721 31.8311C101.721 32.0891 101.704 32.3548 101.669 32.6282C101.639 32.9016 101.598 33.1692 101.548 33.4311C101.502 33.6929 101.45 33.9452 101.392 34.1878C101.338 34.4304 101.288 34.6498 101.242 34.8462L101.04 35.6318C101.032 35.6549 101.017 35.7011 100.994 35.7704C100.974 35.8397 100.947 35.9244 100.913 36.0246C100.882 36.1208 100.845 36.2267 100.803 36.3423C100.765 36.4539 100.724 36.5656 100.682 36.6773C100.643 36.7851 100.605 36.8852 100.566 36.9776C100.532 37.07 100.501 37.1451 100.474 37.2029L100.48 37.1971C100.453 37.2972 100.424 37.3993 100.393 37.5033C100.362 37.6072 100.32 37.7016 100.266 37.7863C100.212 37.8671 100.143 37.9345 100.058 37.9884C99.9732 38.0385 99.8634 38.0635 99.7287 38.0635ZM100.023 30.8318C99.85 30.8318 99.6767 30.8684 99.5034 30.9416C99.334 31.0109 99.1665 31.1033 99.0009 31.2188C98.8353 31.3344 98.6736 31.4691 98.5157 31.6232C98.3616 31.7772 98.2134 31.9351 98.0709 32.0968C97.9323 32.2585 97.8014 32.4222 97.6781 32.5878C97.5549 32.7495 97.4432 32.8997 97.3431 33.0383C97.3277 33.0614 97.3065 33.0922 97.2796 33.1307C97.2565 33.1654 97.2315 33.2058 97.2045 33.252C97.1814 33.2944 97.1583 33.3406 97.1352 33.3907C97.1121 33.4369 97.0928 33.4792 97.0774 33.5177H97.6724C97.888 33.5177 98.1345 33.5023 98.4117 33.4715C98.689 33.4407 98.9624 33.4041 99.2319 33.3618C99.5053 33.3194 99.7556 33.2771 99.9828 33.2347C100.21 33.1885 100.381 33.1538 100.497 33.1307C100.512 33.0807 100.526 33.0133 100.537 32.9286C100.553 32.8438 100.566 32.7495 100.578 32.6455C100.589 32.5416 100.597 32.4318 100.601 32.3163C100.609 32.1969 100.612 32.0756 100.612 31.9524C100.612 31.8523 100.609 31.7387 100.601 31.6116C100.593 31.4807 100.57 31.3575 100.532 31.2419C100.493 31.1264 100.433 31.0301 100.352 30.9531C100.275 30.8723 100.166 30.8318 100.023 30.8318ZM103.269 38.8837C103.269 38.7913 103.293 38.697 103.339 38.6007C103.389 38.5083 103.454 38.4101 103.535 38.3061C103.62 38.206 103.716 38.1001 103.824 37.9884C103.936 37.8768 104.051 37.7593 104.17 37.6361C104.398 37.4051 104.636 37.1644 104.887 36.9141C105.137 36.6638 105.376 36.4058 105.603 36.1401C105.699 36.0246 105.776 35.9302 105.834 35.8571C105.892 35.7839 105.934 35.7242 105.961 35.678C105.992 35.6279 106.011 35.5856 106.019 35.5509C106.03 35.5163 106.038 35.4816 106.042 35.447C105.88 35.239 105.736 35.0137 105.609 34.7711C105.486 34.5286 105.374 34.2763 105.274 34.0145C105.177 33.7488 105.089 33.4811 105.008 33.2116C104.931 32.942 104.858 32.6783 104.789 32.4203C104.723 32.1854 104.66 31.9485 104.598 31.7098C104.54 31.4711 104.463 31.265 104.367 31.0918C104.294 30.9608 104.23 30.8261 104.176 30.6874C104.126 30.545 104.101 30.389 104.101 30.2196C104.101 30.1464 104.109 30.0617 104.124 29.9654C104.144 29.8653 104.174 29.7729 104.217 29.6882C104.263 29.6034 104.321 29.5322 104.39 29.4744C104.463 29.4128 104.552 29.382 104.656 29.382C104.767 29.382 104.871 29.4205 104.968 29.4975C105.064 29.5746 105.151 29.6728 105.228 29.7921C105.305 29.9077 105.37 30.0347 105.424 30.1734C105.478 30.3081 105.52 30.4333 105.551 30.5488C105.59 30.7144 105.636 30.9204 105.69 31.1668C105.747 31.4133 105.803 31.6655 105.857 31.9235C105.915 32.1815 105.971 32.426 106.025 32.6571C106.079 32.8881 106.127 33.073 106.169 33.2116C106.219 33.3849 106.273 33.5485 106.331 33.7026C106.389 33.8527 106.446 33.9837 106.504 34.0953C106.562 34.2032 106.618 34.2898 106.672 34.3553C106.729 34.4169 106.783 34.4477 106.833 34.4477C106.872 34.4477 106.931 34.3957 107.012 34.2917C107.328 33.872 107.655 33.4234 107.994 32.9459C108.337 32.4645 108.67 31.989 108.994 31.5192C109.113 31.3459 109.219 31.1861 109.311 31.0398C109.404 30.8934 109.486 30.7548 109.56 30.6239C109.637 30.4891 109.706 30.3601 109.768 30.2369C109.829 30.1098 109.887 29.9827 109.941 29.8557L110.091 29.2492C110.106 29.1876 110.131 29.126 110.166 29.0643C110.205 28.9989 110.247 28.9411 110.293 28.8911C110.343 28.8371 110.399 28.7948 110.461 28.764C110.526 28.7293 110.597 28.712 110.674 28.712C110.775 28.712 110.861 28.7332 110.934 28.7755C111.008 28.814 111.067 28.866 111.113 28.9315C111.16 28.997 111.194 29.074 111.217 29.1625C111.24 29.2472 111.252 29.3358 111.252 29.4282C111.252 29.5322 111.231 29.6516 111.188 29.7864C111.15 29.9211 111.098 30.0598 111.033 30.2022C110.967 30.3447 110.894 30.4853 110.813 30.6239C110.732 30.7625 110.653 30.8877 110.576 30.9993C110.026 31.7849 109.465 32.582 108.895 33.3907C108.329 34.1955 107.754 34.9675 107.168 35.7069C106.648 36.3654 106.138 36.9757 105.638 37.5379C105.141 38.1001 104.686 38.5911 104.274 39.0108C104.186 39.0994 104.086 39.1822 103.974 39.2592C103.862 39.3362 103.745 39.3747 103.622 39.3747C103.556 39.3747 103.5 39.3593 103.454 39.3285C103.412 39.3016 103.377 39.265 103.35 39.2188C103.323 39.1726 103.302 39.1186 103.287 39.057C103.275 38.9993 103.269 38.9415 103.269 38.8837Z" fill="#126FFB"/>
</svg>
